<svg display="none" xmlns="http://www.w3.org/2000/svg">
<symbol id="twitter" viewBox="0 0 16 14">
<g><path d="M15.762 2.17257C15.2053 2.41924 14.6073 2.5859 13.9787 2.66124C14.6273 2.2731 15.1126 1.66221 15.344 0.94257C14.7346 1.30456 14.0676 1.55937 13.372 1.6959C12.9043 1.19648 12.2847 0.865454 11.6095 0.754219C10.9344 0.642984 10.2414 0.757764 9.63816 1.08074C9.03492 1.40371 8.55518 1.91681 8.27343 2.54037C7.99169 3.16393 7.92369 3.86307 8.08 4.52924C6.84512 4.46723 5.63708 4.14627 4.53428 3.58717C3.43148 3.02808 2.45856 2.24334 1.67866 1.2839C1.412 1.7439 1.25866 2.27724 1.25866 2.84524C1.25837 3.35657 1.38429 3.86006 1.62525 4.31106C1.86621 4.76205 2.21477 5.14659 2.64 5.43057C2.14685 5.41488 1.66458 5.28163 1.23333 5.0419V5.0819C1.23328 5.79906 1.48135 6.49415 1.93545 7.04923C2.38955 7.60431 3.02171 7.98519 3.72466 8.12724C3.26719 8.25105 2.78756 8.26928 2.322 8.18057C2.52033 8.79764 2.90666 9.33725 3.42691 9.72385C3.94716 10.1105 4.57528 10.3247 5.22333 10.3366C4.12322 11.2002 2.76459 11.6686 1.366 11.6666C1.11825 11.6666 0.870715 11.6522 0.624664 11.6232C2.04432 12.536 3.69689 13.0204 5.38467 13.0186C11.098 13.0186 14.2213 8.28657 14.2213 4.18257C14.2213 4.04924 14.218 3.91457 14.212 3.78124C14.8195 3.34189 15.3439 2.79783 15.7607 2.17457L15.762 2.17257Z" fill="#333333"/></g>
</symbol>
<symbol id="instagram" viewBox="0 0 14 14">
<g><path d="M6.99421 4.79431C5.84734 4.79431 4.9114 5.73025 4.9114 6.87712C4.9114 8.024 5.84734 8.95994 6.99421 8.95994C8.14109 8.95994 9.07703 8.024 9.07703 6.87712C9.07703 5.73025 8.14109 4.79431 6.99421 4.79431ZM13.2411 6.87712C13.2411 6.01462 13.2489 5.15994 13.2005 4.299C13.152 3.299 12.9239 2.4115 12.1927 1.68025C11.4598 0.947437 10.5739 0.720875 9.5739 0.672437C8.7114 0.624 7.85671 0.631812 6.99578 0.631812C6.13328 0.631812 5.27859 0.624 4.41765 0.672437C3.41765 0.720875 2.53015 0.949 1.7989 1.68025C1.06609 2.41306 0.839527 3.299 0.79109 4.299C0.742652 5.1615 0.750465 6.01619 0.750465 6.87712C0.750465 7.73806 0.742652 8.59431 0.79109 9.45525C0.839527 10.4552 1.06765 11.3427 1.7989 12.074C2.53171 12.8068 3.41765 13.0334 4.41765 13.0818C5.28015 13.1302 6.13484 13.1224 6.99578 13.1224C7.85828 13.1224 8.71296 13.1302 9.5739 13.0818C10.5739 13.0334 11.4614 12.8052 12.1927 12.074C12.9255 11.3412 13.152 10.4552 13.2005 9.45525C13.2505 8.59431 13.2411 7.73962 13.2411 6.87712ZM6.99421 10.0818C5.22078 10.0818 3.78953 8.65056 3.78953 6.87712C3.78953 5.10369 5.22078 3.67244 6.99421 3.67244C8.76765 3.67244 10.1989 5.10369 10.1989 6.87712C10.1989 8.65056 8.76765 10.0818 6.99421 10.0818ZM10.3302 4.28962C9.91609 4.28962 9.58171 3.95525 9.58171 3.54119C9.58171 3.12712 9.91609 2.79275 10.3302 2.79275C10.7442 2.79275 11.0786 3.12712 11.0786 3.54119C11.0787 3.63951 11.0594 3.73689 11.0219 3.82775C10.9843 3.91861 10.9292 4.00116 10.8597 4.07069C10.7901 4.14021 10.7076 4.19534 10.6167 4.2329C10.5259 4.27047 10.4285 4.28975 10.3302 4.28962Z" fill="#333333"/></g>
</symbol>
<symbol viewBox="0 0 14 15" id="in">
<g><path d="M3.134 14.8813H0.2315V5.53435H3.134V14.8813ZM1.681 4.25935C0.753 4.25935 0 3.49035 0 2.56235C0 2.11652 0.177105 1.68895 0.492354 1.3737C0.807602 1.05845 1.23517 0.881348 1.681 0.881348C2.12683 0.881348 2.5544 1.05845 2.86965 1.3737C3.1849 1.68895 3.362 2.11652 3.362 2.56235C3.362 3.49035 2.609 4.25935 1.681 4.25935ZM13.997 14.8813H11.101V10.3313C11.101 9.24685 11.079 7.85635 9.592 7.85635C8.083 7.85635 7.8515 9.03435 7.8515 10.2533V14.8813H4.952V5.53435H7.7355V6.80935H7.776C8.1635 6.07485 9.11 5.29985 10.522 5.29985C13.4595 5.29985 13.9995 7.23435 13.9995 9.74685V14.8813H13.997Z" fill="#333333"/></g>
</symbol>
<symbol id="youtube"  viewBox="0 0 14 11">
<g><path d="M13.7078 2.50791C13.6281 2.2111 13.4719 1.94042 13.2547 1.72297C13.0375 1.50552 12.767 1.34892 12.4703 1.26885C11.3781 0.975098 7 0.975098 7 0.975098C7 0.975098 2.62187 0.975098 1.52969 1.26729C1.23284 1.3471 0.962226 1.50361 0.745009 1.7211C0.527792 1.93859 0.371624 2.2094 0.292187 2.50635C-5.96046e-08 3.6001 0 5.88135 0 5.88135C0 5.88135 -5.96046e-08 8.1626 0.292187 9.25479C0.453125 9.85791 0.928125 10.3329 1.52969 10.4938C2.62187 10.7876 7 10.7876 7 10.7876C7 10.7876 11.3781 10.7876 12.4703 10.4938C13.0734 10.3329 13.5469 9.85791 13.7078 9.25479C14 8.1626 14 5.88135 14 5.88135C14 5.88135 14 3.6001 13.7078 2.50791ZM5.60938 7.9751V3.7876L9.23438 5.86572L5.60938 7.9751Z" fill="#333333"/>
</g>
</symbol>
<symbol id="viber" viewBox="0 0 18 18">
<g><path d="M9.15481 0.459961C4.58876 0.459961 0.886844 4.13293 0.886844 8.66417C0.886844 10.2142 1.32038 11.6638 2.07327 12.9005L0.581055 17.3021L5.15865 15.8479C6.34316 16.4977 7.70545 16.8684 9.15481 16.8684C13.7215 16.8684 17.4232 13.1949 17.4232 8.66417C17.4232 4.13293 13.7215 0.459961 9.15481 0.459961ZM13.2662 11.7799C13.0717 12.2621 12.192 12.7022 11.8038 12.7224C11.4161 12.743 11.405 13.023 9.29102 12.1046C7.1773 11.1861 5.9056 8.95259 5.80534 8.80876C5.705 8.66545 4.98654 7.64158 5.0253 6.6112C5.06433 5.58064 5.62857 5.09443 5.82996 4.89222C6.03113 4.6897 6.26177 4.65342 6.4026 4.65113C6.56906 4.64842 6.67688 4.64616 6.80008 4.65071C6.92316 4.65537 7.10805 4.62496 7.26812 5.05068C7.42812 5.47635 7.81109 6.52259 7.86008 6.62921C7.90902 6.73594 7.93933 6.85951 7.86391 6.99654C7.78827 7.13387 7.74955 7.21966 7.63981 7.33801C7.52948 7.45635 7.40771 7.60274 7.30929 7.69323C7.19951 7.79342 7.08485 7.90271 7.20027 8.11688C7.3156 8.3309 7.71354 9.03252 8.31978 9.61071C9.09891 10.354 9.77083 10.6005 9.9776 10.7129C10.1849 10.8258 10.3087 10.8132 10.4372 10.6779C10.5652 10.5426 10.9876 10.086 11.1363 9.8821C11.285 9.67767 11.4243 9.71771 11.6153 9.79455C11.8062 9.87169 12.8243 10.417 13.0316 10.5295C13.2388 10.6419 13.3772 10.6998 13.4267 10.7889C13.4762 10.8784 13.4606 11.2976 13.2662 11.7799Z" fill="#333333"/>
</g>
</symbol>
<symbol viewBox="0 0 16 11" id="be">
<g><path d="M14.6667 1.54818H10V0.214844H14.6667V1.54818ZM15.8173 8.21484C15.5227 9.07951 14.4647 10.2148 12.4167 10.2148C10.3673 10.2148 8.70733 9.06218 8.70733 6.43151C8.70733 3.82484 10.2573 2.48484 12.3513 2.48484C14.406 2.48484 15.6607 3.67284 15.9347 5.43551C15.9867 5.77284 16.0073 6.22751 15.998 6.86218H10.6467C10.7333 9.00284 12.9687 9.07018 13.7053 8.21484H15.8173ZM10.6933 5.54818H14.0033C13.9333 4.51684 13.246 4.06884 12.352 4.06884C11.3747 4.06884 10.834 4.58084 10.6933 5.54818ZM4.31067 10.2068H0V0.228844H4.63533C8.286 0.282844 8.35533 3.85818 6.44867 4.83284C8.756 5.67284 8.83333 10.2068 4.31067 10.2068ZM2 4.21484H4.38933C6.06133 4.21484 6.32667 2.21484 4.18133 2.21484H2V4.21484ZM4.26067 6.21484H2V8.22551H4.22733C6.264 8.22551 6.13933 6.21484 4.26067 6.21484Z" fill="#333333"/>
</g>
</symbol>

</svg>